<svg version="1.1" id="Logo" xmlns:x="ns_extend;" xmlns:i="ns_ai;" xmlns:graph="ns_graphs;" xmlns="http://www.w3.org/2000/svg" xmlns:xlink="http://www.w3.org/1999/xlink" x="0px" y="0px" viewBox="0 0 225.7 74" style="enable-background:new 0 0 225.7 74;" xml:space="preserve">
 <style type="text/css">
  .st0{fill:#FF5C0B;}
 </style>
 <metadata>
  <sfw xmlns="ns_sfw;">
   <slices>
   </slices>
   <sliceSourceBounds bottomLeftOrigin="true" height="74" width="225.7" x="1030.8" y="338">
   </sliceSourceBounds>
  </sfw>
 </metadata>
 <g>
  <path class="st0" d="M36.9,34.4c1.3,0.2,2.6,0.3,3.8,0.3c4.7,0,9.7-1.8,9.7-6.8c0-3.8-2.9-6.8-6.7-6.8c-4,0-6.9,3.5-6.9,8.5
		L36.9,34.4L36.9,34.4z M24.9,67.4h2.7c1.5,0,2.7-1.2,2.7-2.7v-25c-2.6-0.7-5.3-1.7-8-3v27.9C22.2,66.2,23.5,67.4,24.9,67.4
		 M29.9,74h-7.4c-3.8,0-6.9-3.1-6.9-6.9V33.3C9.6,29.6,3.9,24.8,0,19l5.5-3.7c2.6,3.9,6.3,7.4,10.3,10.2
		C17.1,10.4,30.5-1.4,46.3,0.1c13.5,1.3,24.3,12.3,25.2,25.8c1.2,16.3-11.8,30-27.9,30v-6.6c12.6,0,22.7-11,21.3-23.8
		c-1.1-9.8-9-17.7-18.8-18.8C33.2,5.3,22.2,15.4,22.2,28v1.5c2.7,1.4,5.4,2.5,8,3.4v-3.1c0-8.8,5.7-15.1,13.4-15.1
		C51,14.6,57,20.6,57,28c0,8-6.6,13.3-16.3,13.3c-1.2,0-2.5-0.1-3.8-0.2v26C36.9,70.9,33.8,74,29.9,74">
  </path>
  <path class="st0" d="M214.7,42.3l-4.5-12.9h-6.7l8.2,20.6c-0.7,1.6-2,2-3.2,2c-1.4,0-2.6-0.4-3.6-0.9l-1.5,5
		c1.6,0.8,3.4,1.2,5.4,1.2c4.7,0,7.2-2.2,9.1-7.3l7.8-20.6h-6.5L214.7,42.3z M191.5,44c-2.6,0-4-1.4-4-4.7c0-3.5,1.5-5,4-5
		c2.4,0,4,1.7,4,4.7C195.5,42.2,193.9,44,191.5,44 M191,57.6c7.1,0,10.8-4.2,10.8-11.3v-17h-5.8l-0.2,3c-1.1-2.2-3.1-3.4-5.9-3.4
		c-5.2,0-8.9,3.7-8.9,10.2c0,6.4,3.7,10.2,8.5,10.2c2.7,0,4.7-1.2,5.9-3.1v1.9c0,3.1-1.5,4.6-4.1,4.6c-2.6,0-3.6-0.9-4.1-2.4
		l-6.9,1.2C181.2,55,184.6,57.6,191,57.6 M157.9,44.4c-2.6,0-4-1.6-4-5c0-3.4,1.5-5.1,4.1-5.1c2.4,0,3.9,1.8,3.9,5
		C161.8,42.6,160.3,44.4,157.9,44.4 M161.8,32c-1.1-1.9-2.8-3.1-5.6-3.1c-5.4,0-8.8,4.1-8.8,10.5c0,6.2,3.4,10.3,8.6,10.3
		c2.9,0,5-1.4,6.3-3.7l0.2,3.3h5.7V21.2h-6.4L161.8,32L161.8,32z M135.2,34.1c2.5,0,4,1.6,4,5.3c0,3.6-1.5,5.3-4,5.3
		c-2.6,0-4-1.6-4-5.3C131.1,35.7,132.6,34.1,135.2,34.1 M135.2,29c-6.2,0-10.5,3.8-10.5,10.4s4.2,10.4,10.5,10.4
		c6.2,0,10.4-3.8,10.4-10.4C145.6,32.8,141.4,29,135.2,29 M117.2,49.3v-9.7c0-2.9,2.2-4.4,4.5-4.4c1.1,0,1.8,0.2,2.3,0.3l0.7-6.2
		c-0.5-0.2-1.2-0.3-1.8-0.3c-3.2,0-5.2,1.8-6.1,4.3l-0.2-3.9h-5.8v20H117.2z M92,34.6v-7.7h5.1c3,0,4.7,1.1,4.7,3.8
		c0,2.8-1.7,3.9-4.7,3.9L92,34.6L92,34.6z M85.5,21.2v28.1H92v-9.1h6.1c6.4,0,10.2-3.5,10.2-9.5c0-6-3.7-9.5-10.2-9.5L85.5,21.2
		L85.5,21.2z">
  </path>
  <path class="st0" d="M171.8,49.3h6.4v-20h-6.4V49.3z M175,20.9c-2.2,0-3.6,1.4-3.6,3.4c0,2.1,1.4,3.5,3.6,3.5
		c2.2,0,3.6-1.4,3.6-3.5C178.6,22.3,177.2,20.9,175,20.9">
  </path>
 </g>
</svg>